<svg viewBox="0 0 20 16.1468" fill="none" xmlns="http://www.w3.org/2000/svg" xmlns:xlink="http://www.w3.org/1999/xlink" x="0" y="0"><path id="Vector_26" d="M2,16.15c-0.55,0 -1.021,-0.2 -1.412,-0.6c-0.391,-0.39 -0.587,-0.87 -0.588,-1.42v-12.11c0,-0.56 0.196,-1.03 0.588,-1.43c0.392,-0.39 0.863,-0.59 1.412,-0.59h16c0.55,0 1.021,0.2 1.413,0.59c0.392,0.4 0.588,0.87 0.587,1.43v12.11c0,0.55 -0.196,1.03 -0.587,1.42c-0.391,0.4 -0.862,0.6 -1.413,0.6zM18,4.04l-7.475,4.71c-0.083,0.06 -0.171,0.09 -0.262,0.12c-0.091,0.02 -0.179,0.04 -0.263,0.04c-0.084,0 -0.171,-0.02 -0.262,-0.04c-0.091,-0.03 -0.178,-0.06 -0.263,-0.12l-7.475,-4.71v10.09h16zM10,7.06l8,-5.04h-16zM2,4.29v-1.49v0.03v-0.02z" fill="white"/></svg>