<svg viewBox="0 0 130 50" fill="none" xmlns="http://www.w3.org/2000/svg" xmlns:xlink="http://www.w3.org/1999/xlink" x="0" y="0"><defs><radialGradient id="paint2_radial_253_59" cx="0" cy="0" r="1" gradientTransform="matrix(3.34336 -3.88078 4.23471 3.77507 194.868 18.7697)" gradientUnits="userSpaceOnUse">
<stop offset="0.31" stop-color="#F15A24"/>
<stop offset="1" stop-color="#006837"/>
</radialGradient><radialGradient id="paint3_radial_253_59" cx="0" cy="0" r="1" gradientTransform="matrix(2.59014 -3.00649 3.28068 2.92459 191.106 27.1449)" gradientUnits="userSpaceOnUse">
<stop offset="0.29" stop-color="#F15A24"/>
<stop offset="1" stop-color="#006837"/>
</radialGradient><clipPath id="clip2_253_59">
<rect width="130" height="50" fill="white" transform="translate(0, 0)"/>
</clipPath></defs><g id="Calque_1" clip-path="url(#clip2_253_59)">
<g id="Group_7">
<path id="Vector_27" d="M104.398,6.808c0.067,1.8019 -1.346,3.1926 -1.784,4.2475c-0.433,1.042 0.748,2.2393 0.748,2.2393l-0.077,0.1425c0,0 -1.201,-1.0434 -1.447,-3.0458c-0.123,-1.0085 -0.173,-1.7816 -0.273,-2.7901c-0.137,-1.3863 -0.314,-2.8554 -1.754,-4.5571c0.06,0.0741 1.6,2.0112 1.46,6.7906c-0.025,0.853 0.157,1.5738 0.524,2.1027c-0.831,-0.3037 -1.687,-0.7891 -2.344,-1.3427c-0.657,-0.5537 -1.237,-1.225 -1.573,-2.0039c-0.399,-0.9257 -0.427,-1.9341 -0.343,-2.8932c0.084,-0.9591 0.273,-1.8993 0.284,-2.8685c0.012,-0.9693 -0.172,-1.9996 -0.757,-2.8322c1.672,0.542 3.356,1.1988 4.763,2.3177c1.406,1.119 2.509,2.7741 2.573,4.4903z" fill="url(#paint2_radial_253_59)"/>
<path id="Vector_28" d="M102.945,13.8341l-0.089,0.093c0,0 -1.155,-0.6714 -1.835,-0.093c-0.687,0.5841 -1.407,2.0199 -2.763,2.3686c-1.293,0.3328 -2.771,-0.1715 -3.919,-1.039c-1.147,-0.8675 -2.014,-2.0591 -2.791,-3.2667c0.752,0.2776 1.559,0.1947 2.279,-0.0319c0.718,-0.2267 1.377,-0.5871 2.071,-0.8676c0.694,-0.2819 1.453,-0.4853 2.23,-0.3749c0.654,0.093 1.286,0.4025 1.844,0.8007c0.559,0.3982 1.113,0.9707 1.524,1.5636c-0.475,-0.1744 -1.052,-0.157 -1.682,0.0538c-3.526,1.1799 -5.313,0.3909 -5.382,0.3589c1.589,0.7629 2.722,0.5754 3.785,0.3749c0.772,-0.1468 1.358,-0.2805 2.137,-0.4069c1.544,-0.2528 2.59,0.4679 2.59,0.4679z" fill="url(#paint3_radial_253_59)"/>
</g>
<g id="Group_8">
<path id="Vector_29" d="M18.047,41.2301c-0.754,0.0799 -1.394,0.0305 -1.92,-0.1483c-0.526,-0.1787 -0.949,-0.4432 -1.269,-0.7948c-0.32,-0.3502 -0.537,-0.7775 -0.65,-1.2803c-0.114,-0.5027 -0.135,-1.0375 -0.064,-1.6042c0.05,-0.4883 0.133,-0.9678 0.25,-1.4357c0.116,-0.468 0.21,-0.946 0.279,-1.4343c0.067,-0.4301 0.115,-0.8603 0.145,-1.2904c0.029,-0.4301 0.029,-0.853 0,-1.2657c-0.043,-0.6278 -0.185,-1.1814 -0.425,-1.658c-0.185,-0.3967 -0.457,-0.667 -0.82,-0.8138c-0.326,-0.125 -0.676,-0.1628 -1.053,-0.1133c-0.377,0.0494 -0.703,0.1801 -0.977,0.3894c-0.157,0.1133 -0.28,0.2543 -0.372,0.4185c-0.09,0.1642 -0.177,0.3342 -0.257,0.5086c-0.183,0.4272 -0.308,0.8661 -0.377,1.3151c-0.069,0.4505 -0.127,0.8995 -0.176,1.3485c-0.054,0.7048 -0.085,1.4198 -0.091,2.1449c-0.007,0.7251 -0.067,1.4401 -0.179,2.1434c-0.045,0.2732 -0.118,0.5522 -0.221,0.8326c-0.103,0.2819 -0.234,0.529 -0.393,0.7411c-0.299,0.4055 -0.657,0.715 -1.077,0.9315c-0.42,0.2151 -0.856,0.3371 -1.31,0.3662c-0.454,0.0291 -0.906,-0.0363 -1.3543,-0.1933c-0.45,-0.1569 -0.8543,-0.4068 -1.2114,-0.7498c-0.3214,-0.2819 -0.56,-0.635 -0.7128,-1.0608c-0.1543,-0.4258 -0.2658,-0.8544 -0.3329,-1.2875c-0.1357,-0.8268 -0.2086,-1.6522 -0.2186,-2.4762c-0.01,-0.8239 -0.0342,-1.6478 -0.0742,-2.4732c-0.0858,-1.3355 -0.2872,-2.6549 -0.6043,-3.9569c-0.1243,-0.4738 -0.2529,-0.9519 -0.3872,-1.4358c-0.1342,-0.4839 -0.2628,-0.9721 -0.3857,-1.4647c-0.0885,-0.3357 -0.1585,-0.6699 -0.2085,-1.0056c-0.05,-0.3342 -0.0429,-0.667 0.0228,-0.9998c0.0429,-0.1758 0.1043,-0.3502 0.1857,-0.5246c0.0815,-0.1743 0.19,-0.3385 0.33,-0.4926c0.2972,-0.3647 0.6614,-0.6655 1.09,-0.9009c0.4286,-0.2354 0.8771,-0.3866 1.34,-0.4534c0.4057,-0.0494 0.8257,-0.0393 1.2571,0.029c0.4333,0.0683 0.8283,0.2151 1.1903,0.4403c0.228,0.1425 0.421,0.3241 0.58,0.5435c0.158,0.2195 0.293,0.4476 0.404,0.6859c0.054,0.1584 0.109,0.3066 0.163,0.4447c0.054,0.138 0.098,0.2862 0.134,0.4446c0.551,-0.5362 1.17,-0.9925 1.853,-1.3688c0.468,-0.263 0.96,-0.4723 1.474,-0.6278c0.514,-0.154 1.042,-0.2354 1.582,-0.2427c0.925,-0.0174 1.818,0.1221 2.679,0.4156c0.862,0.295 1.67,0.7266 2.429,1.2933c0.209,0.1628 0.407,0.3241 0.596,0.4854c0.188,0.1613 0.368,0.3517 0.537,0.5711c0.561,-0.9867 1.248,-1.7017 2.058,-2.1434c0.81,-0.4418 1.655,-0.6815 2.533,-0.7208c0.879,-0.0378 1.762,0.1003 2.652,0.4156c0.89,0.3154 1.704,0.7455 2.442,1.2933c0.777,0.5682 1.389,1.2585 1.833,2.0737c0.259,0.4766 0.474,0.9779 0.646,1.5011c0.171,0.5246 0.308,1.0521 0.413,1.5839c0.104,0.513 0.197,1.0637 0.28,1.6537c0.083,0.59 0.151,1.1945 0.204,1.8135c0.053,0.6191 0.083,1.2279 0.089,1.8266c0.005,0.5987 -0.018,1.1524 -0.068,1.661c-0.054,0.6655 -0.131,1.3412 -0.234,2.0242c-0.103,0.6845 -0.286,1.3079 -0.548,1.8702c-0.265,0.5624 -0.622,1.0405 -1.075,1.4314c-0.453,0.3909 -1.065,0.6176 -1.837,0.6772c-0.734,0.0799 -1.364,0.0319 -1.891,-0.1468c-0.527,-0.1788 -0.949,-0.4432 -1.269,-0.7949c-0.32,-0.3502 -0.537,-0.7774 -0.65,-1.2802c-0.114,-0.5028 -0.135,-1.0376 -0.064,-1.6043c0.05,-0.4883 0.133,-0.9721 0.25,-1.4502c0.117,-0.4781 0.21,-0.9606 0.279,-1.4503c0.047,-0.4112 0.091,-0.8312 0.13,-1.2613c0.038,-0.4301 0.042,-0.8617 0.014,-1.2948c-0.033,-0.2746 -0.079,-0.5507 -0.14,-0.8268c-0.062,-0.2761 -0.157,-0.5435 -0.286,-0.8007c-0.093,-0.1787 -0.204,-0.3429 -0.336,-0.4926c-0.131,-0.1497 -0.292,-0.2572 -0.484,-0.3197c-0.324,-0.1439 -0.676,-0.1918 -1.053,-0.1424c-0.377,0.0494 -0.703,0.1802 -0.977,0.3894c-0.413,0.3241 -0.667,0.7106 -0.764,1.1582c-0.097,0.449 -0.127,0.9242 -0.09,1.4241c0.037,0.5013 0.093,1.007 0.168,1.5185c0.076,0.5115 0.098,1.0027 0.068,1.4721c-0.073,0.6655 -0.16,1.3398 -0.263,2.0242c-0.103,0.6844 -0.28,1.3078 -0.534,1.8702c-0.255,0.5624 -0.612,1.0405 -1.075,1.4314c-0.463,0.3908 -1.07,0.6175 -1.823,0.6786zM3.19,24.3474c0.1129,0.1017 0.2372,0.1424 0.3729,0.1264c0.1357,-0.016 0.2514,-0.0625 0.35,-0.1395c0.0986,-0.0756 0.1628,-0.1671 0.1943,-0.2747c0.0314,-0.1075 0,-0.2107 -0.0943,-0.3109c-0.1129,-0.1003 -0.2386,-0.1483 -0.3729,-0.141c-0.1357,0.0073 -0.2571,0.048 -0.3642,0.1235c-0.1086,0.0756 -0.1772,0.173 -0.2086,0.2892c-0.0314,0.1163 0.01,0.2252 0.1228,0.327zM4.4472,31.4082c0.0157,0.157 0.0957,0.2572 0.2385,0.2994c0.1443,0.0421 0.2929,0.0363 0.4486,-0.0189c0.1357,-0.0552 0.2343,-0.157 0.2957,-0.3023c0.0614,-0.1453 0.0443,-0.279 -0.0486,-0.3981c-0.0757,-0.08 -0.1657,-0.1221 -0.2714,-0.1236c-0.1057,-0.0014 -0.2129,0.0146 -0.32,0.0509c-0.1071,0.0363 -0.19,0.0988 -0.25,0.186c-0.06,0.0872 -0.0914,0.1889 -0.0943,0.3066zM6.547,36.9883c-0.176,0.0945 -0.27,0.2049 -0.283,0.3313c-0.013,0.1279 0.023,0.2354 0.109,0.3255c0.084,0.0901 0.194,0.1366 0.33,0.1395c0.136,0.003 0.271,-0.0712 0.41,-0.2252c0.158,-0.1918 0.157,-0.3691 -0.003,-0.5289c-0.16,-0.1599 -0.349,-0.1744 -0.563,-0.0422zM7.376,27.2406c0.193,0.0043 0.343,-0.0363 0.451,-0.1221c0.107,-0.0857 0.177,-0.1816 0.209,-0.2892c0.031,-0.1075 0.008,-0.2063 -0.066,-0.2949c-0.076,-0.0901 -0.21,-0.1381 -0.401,-0.1425c-0.155,-0.0029 -0.276,0.0378 -0.365,0.1236c-0.088,0.0857 -0.144,0.1787 -0.165,0.2761c-0.022,0.0973 -0.01,0.1961 0.037,0.295c0.045,0.0988 0.145,0.1511 0.3,0.154zM7.467,33.4208c0.094,0.0814 0.224,0.1177 0.389,0.1119c0.164,-0.0058 0.294,-0.0465 0.393,-0.1235c0.117,-0.0944 0.182,-0.2165 0.195,-0.3633c0.013,-0.1467 -0.047,-0.2514 -0.181,-0.3124c-0.134,-0.0625 -0.269,-0.0799 -0.404,-0.0538c-0.136,0.0262 -0.253,0.0829 -0.352,0.1686c-0.098,0.0857 -0.158,0.1831 -0.18,0.2906c-0.021,0.1076 0.024,0.202 0.139,0.2834zM10.968,26.9718c-0.041,0.1366 -0.034,0.2441 0.022,0.324c0.056,0.0799 0.137,0.1264 0.243,0.1381c0.105,0.013 0.217,-0.0044 0.334,-0.0509c0.117,-0.0465 0.206,-0.1279 0.266,-0.2441c0.08,-0.1555 0.093,-0.2819 0.037,-0.3822c-0.056,-0.0988 -0.142,-0.1657 -0.256,-0.1976c-0.114,-0.032 -0.236,-0.0146 -0.363,0.0508c-0.127,0.0654 -0.221,0.186 -0.283,0.3604zM12.023,23.8199c-0.042,0.1162 -0.035,0.215 0.023,0.295c0.055,0.0799 0.131,0.1307 0.228,0.1525c0.096,0.0218 0.202,0.0146 0.319,-0.0218c0.117,-0.0363 0.224,-0.1017 0.323,-0.199c0.138,-0.1541 0.161,-0.3096 0.068,-0.4694c-0.093,-0.1584 -0.236,-0.2209 -0.43,-0.186c-0.117,0.0363 -0.224,0.0886 -0.321,0.154c-0.099,0.0669 -0.167,0.1584 -0.209,0.2747zM16.391,30.1004c0.134,0.0232 0.256,-0.0044 0.363,-0.0799c0.107,-0.0756 0.187,-0.1613 0.237,-0.2587c0.05,-0.0974 0.063,-0.1947 0.036,-0.2935c-0.027,-0.0988 -0.107,-0.1686 -0.242,-0.2122c-0.154,-0.0421 -0.288,-0.0261 -0.405,0.0494c-0.117,0.0756 -0.202,0.1671 -0.252,0.2732c-0.051,0.1075 -0.058,0.2151 -0.021,0.3226c0.036,0.109 0.13,0.1744 0.284,0.1976zM16.771,26.1376c0.017,0.0989 0.069,0.173 0.154,0.2238c0.086,0.0509 0.178,0.0683 0.273,0.0509c0.233,-0.0334 0.417,-0.1526 0.557,-0.3546c0.14,-0.202 0.115,-0.3647 -0.075,-0.4868c-0.209,-0.1424 -0.426,-0.1467 -0.65,-0.016c-0.225,0.1323 -0.312,0.327 -0.259,0.5827zM17.481,38.1276c-0.08,0.1162 -0.106,0.2238 -0.08,0.3211c0.027,0.0989 0.087,0.1744 0.183,0.2253c0.096,0.0508 0.206,0.0741 0.331,0.0668c0.126,-0.0072 0.238,-0.0581 0.336,-0.154c0.137,-0.1148 0.197,-0.2354 0.182,-0.3633c-0.018,-0.1279 -0.078,-0.2223 -0.182,-0.2834c-0.104,-0.061 -0.23,-0.0828 -0.374,-0.0683c-0.144,0.016 -0.277,0.1018 -0.396,0.2558zM19.393,32.9355c0.114,0.0814 0.232,0.1133 0.36,0.0973c0.125,-0.0159 0.237,-0.0624 0.335,-0.1395c0.099,-0.0755 0.163,-0.1671 0.195,-0.2746c0.031,-0.1075 0,-0.2107 -0.095,-0.311c-0.037,-0.0596 -0.094,-0.0944 -0.171,-0.1075c-0.077,-0.0116 -0.144,-0.0174 -0.202,-0.0189c-0.212,-0.0044 -0.378,0.0843 -0.497,0.2674c-0.12,0.1831 -0.094,0.3458 0.076,0.4868zM21.787,26.8439c-0.042,0.1366 -0.035,0.2441 0.021,0.324c0.056,0.08 0.137,0.1308 0.243,0.1526c0.106,0.0218 0.217,0.0102 0.333,-0.0363c0.117,-0.0465 0.206,-0.1279 0.266,-0.2441c0.08,-0.1555 0.092,-0.2863 0.038,-0.3968c-0.056,-0.1089 -0.14,-0.1743 -0.256,-0.1976c-0.115,-0.0218 -0.235,-0.0058 -0.362,0.0509c-0.128,0.0552 -0.222,0.1714 -0.283,0.3458zM22.841,23.7211c-0.041,0.1162 -0.034,0.215 0.023,0.2949c0.056,0.08 0.131,0.1265 0.228,0.1381c0.096,0.0116 0.203,0 0.319,-0.0363c0.117,-0.0364 0.224,-0.1018 0.323,-0.1991c0.138,-0.154 0.161,-0.3052 0.068,-0.4548c-0.092,-0.1497 -0.245,-0.2064 -0.458,-0.173c-0.097,0.0378 -0.194,0.0887 -0.293,0.1555c-0.099,0.0669 -0.167,0.1584 -0.209,0.2747zM27.21,30.0016c0.134,0.0232 0.255,-0.0029 0.362,-0.0799c0.107,-0.0756 0.187,-0.1628 0.237,-0.2587c0.05,-0.0974 0.063,-0.1947 0.036,-0.2935c-0.027,-0.0989 -0.107,-0.1686 -0.241,-0.2122c-0.154,-0.0421 -0.294,-0.0262 -0.42,0.0494c-0.127,0.0756 -0.212,0.1671 -0.252,0.2732c-0.041,0.1075 -0.044,0.2151 -0.007,0.324c0.036,0.109 0.132,0.1744 0.285,0.1977zM27.59,26.0388c0.017,0.0988 0.068,0.173 0.154,0.2238c0.085,0.0509 0.177,0.0683 0.274,0.0509c0.213,-0.0334 0.394,-0.1526 0.543,-0.3546c0.148,-0.202 0.128,-0.3647 -0.062,-0.4868c-0.208,-0.1424 -0.425,-0.1468 -0.65,-0.016c-0.224,0.1323 -0.311,0.327 -0.258,0.5827zM28.299,38.0288c-0.08,0.1162 -0.105,0.2238 -0.08,0.3211c0.028,0.0988 0.088,0.1744 0.183,0.2253c0.096,0.0508 0.206,0.0741 0.332,0.0668c0.125,-0.0073 0.237,-0.0581 0.335,-0.154c0.138,-0.1148 0.198,-0.2354 0.182,-0.3633c-0.017,-0.1279 -0.077,-0.2223 -0.182,-0.2834c-0.104,-0.061 -0.23,-0.0828 -0.374,-0.0683c-0.144,0.016 -0.277,0.1017 -0.396,0.2558zM30.211,32.8367c0.114,0.0813 0.233,0.1133 0.36,0.0973c0.126,-0.016 0.237,-0.0625 0.336,-0.1395c0.098,-0.0755 0.162,-0.1671 0.194,-0.2746c0.031,-0.1076 0,-0.2107 -0.094,-0.311c-0.038,-0.0596 -0.095,-0.1003 -0.172,-0.1221c-0.077,-0.0218 -0.144,-0.0334 -0.201,-0.0334c-0.213,0.0146 -0.379,0.1134 -0.499,0.2965c-0.12,0.1831 -0.094,0.3458 0.076,0.4868z" fill="#F15A24"/>
<path id="Vector_30" d="M51.338,31.4446c-0.285,1.0725 -0.832,2.0141 -1.645,2.825c-0.813,0.8108 -1.76,1.4677 -2.845,1.9704c-1.085,0.5028 -2.243,0.8458 -3.475,1.0289c-1.231,0.1831 -2.412,0.1932 -3.541,0.0305c-1.13,-0.1628 -2.146,-0.5043 -3.048,-1.0245c-0.903,-0.5202 -1.555,-1.2424 -1.953,-2.1681c-0.247,-0.5464 -0.402,-1.1363 -0.463,-1.7714c-0.062,-0.6335 -0.046,-1.2613 0.05,-1.8818c0.084,-0.5202 0.228,-1.0419 0.43,-1.565c0.201,-0.5232 0.497,-0.9606 0.89,-1.3151c0.426,-0.3968 0.937,-0.715 1.534,-0.9519c0.597,-0.2368 1.223,-0.4272 1.877,-0.5725c0.654,-0.1439 1.31,-0.2688 1.969,-0.3749c0.658,-0.1046 1.251,-0.2238 1.781,-0.356c0.436,-0.1032 0.682,-0.3096 0.739,-0.6205c0.057,-0.311 -0.049,-0.5421 -0.315,-0.6932c-0.202,-0.0973 -0.52,-0.125 -0.952,-0.0814c-0.433,0.0436 -0.885,0.1236 -1.358,0.2398c-0.472,0.1163 -0.925,0.2456 -1.357,0.388c-0.431,0.1424 -0.758,0.263 -0.981,0.3647c-0.317,0.1308 -0.629,0.2558 -0.937,0.375c-0.309,0.1191 -0.623,0.215 -0.946,0.2862c-0.21,0.0407 -0.424,0.0727 -0.644,0.0945c-0.22,0.0218 -0.442,-0.0044 -0.662,-0.0814c-0.178,-0.0407 -0.345,-0.1177 -0.501,-0.231c-0.156,-0.1119 -0.29,-0.2413 -0.401,-0.388c-0.483,-0.5813 -0.779,-1.241 -0.889,-1.9792c-0.084,-0.6612 0.02,-1.2439 0.31,-1.7453c0.29,-0.5013 0.679,-0.9402 1.166,-1.3136c0.487,-0.3735 1.031,-0.6946 1.635,-0.962c0.603,-0.2674 1.169,-0.4868 1.695,-0.6583c0.677,-0.2049 1.361,-0.3822 2.054,-0.5318c0.693,-0.1482 1.384,-0.2572 2.074,-0.327c0.997,-0.1003 2,-0.0479 3.007,0.157c1.007,0.2048 1.943,0.558 2.806,1.0637c0.327,0.1845 0.626,0.4097 0.894,0.6786c0.269,0.2688 0.514,0.5594 0.739,0.8719c0.424,0.5885 0.763,1.2235 1.013,1.908c0.25,0.6844 0.447,1.3732 0.592,2.0678c0.113,0.5609 0.185,1.1494 0.215,1.767c0.031,0.6176 0.028,1.2439 -0.008,1.8775c-0.035,0.635 -0.101,1.257 -0.197,1.8673c-0.095,0.6103 -0.214,1.1887 -0.354,1.7351zM37.431,33.6375c0.174,0.0029 0.31,-0.0465 0.407,-0.1439c0.097,-0.0988 0.144,-0.2064 0.143,-0.3241c-0.002,-0.1177 -0.04,-0.2179 -0.116,-0.2993c-0.076,-0.0814 -0.199,-0.1032 -0.37,-0.0669c-0.133,0.0335 -0.233,0.0974 -0.301,0.1933c-0.069,0.0959 -0.109,0.1875 -0.119,0.2776c-0.011,0.0901 0.011,0.1714 0.067,0.2441c0.056,0.0727 0.152,0.1133 0.287,0.1192zM37.371,21.0256c-0.155,0.0159 -0.269,0.0712 -0.347,0.1671c-0.078,0.0959 -0.112,0.1991 -0.102,0.3051c0.01,0.1061 0.059,0.2006 0.143,0.2805c0.084,0.0799 0.203,0.1032 0.356,0.0683c0.151,-0.0349 0.261,-0.1003 0.33,-0.1962c0.068,-0.0959 0.097,-0.1918 0.088,-0.2892c-0.008,-0.0973 -0.051,-0.1816 -0.125,-0.2528c-0.075,-0.0712 -0.189,-0.0988 -0.343,-0.0843zM37.779,28.845c0.016,0.1569 0.097,0.2557 0.247,0.3008c0.15,0.0436 0.298,0.0203 0.443,-0.0741c0.126,-0.0916 0.207,-0.2122 0.242,-0.3648c0.032,-0.1511 -0.022,-0.2688 -0.165,-0.3531c-0.162,-0.0814 -0.331,-0.0654 -0.502,0.0509c-0.173,0.1162 -0.26,0.263 -0.263,0.4403zM41.308,31.978c0.107,0.1075 0.234,0.1729 0.383,0.1976c0.147,0.0247 0.298,0.029 0.451,0.0131c0.287,-0.0291 0.56,-0.1599 0.819,-0.3924c0.258,-0.2325 0.474,-0.5013 0.648,-0.8036c0.174,-0.3022 0.299,-0.6161 0.374,-0.9387c0.075,-0.3226 0.088,-0.6002 0.036,-0.8312c-0.051,-0.2311 -0.183,-0.3851 -0.393,-0.4636c-0.211,-0.077 -0.51,-0.0174 -0.897,0.1788c-0.387,0.1961 -0.744,0.4635 -1.07,0.8021c-0.326,0.3386 -0.534,0.7295 -0.627,1.1712c-0.021,0.1788 -0.013,0.3706 0.027,0.574c0.039,0.2035 0.123,0.3677 0.252,0.4927zM44.223,35.3798c0.035,0.154 0.12,0.2441 0.259,0.2703c0.137,0.0261 0.261,0.0029 0.371,-0.0669c0.148,-0.0741 0.243,-0.1874 0.287,-0.3386c0.043,-0.1525 0.003,-0.2703 -0.121,-0.3574c-0.166,-0.1018 -0.343,-0.093 -0.536,0.0247c-0.191,0.1177 -0.278,0.2746 -0.26,0.4693zM43.126,21.0677c0.03,0.1148 0.096,0.1875 0.196,0.2165c0.1,0.0291 0.201,0.0291 0.304,0c0.103,-0.0305 0.2,-0.0886 0.289,-0.1773c0.088,-0.0872 0.146,-0.1918 0.173,-0.3124c0.007,-0.1192 -0.022,-0.2151 -0.086,-0.2863c-0.066,-0.0726 -0.147,-0.1133 -0.244,-0.1235c-0.099,-0.0102 -0.203,0.0102 -0.315,0.0611c-0.111,0.0508 -0.19,0.1365 -0.235,0.2601c-0.035,0.0436 -0.063,0.0944 -0.087,0.1569c-0.023,0.061 -0.022,0.1308 0.005,0.2064zM46.059,26.7437c0.119,0.0276 0.243,0.0102 0.373,-0.0523c0.128,-0.0625 0.217,-0.1555 0.264,-0.2776c0.06,-0.1831 0.013,-0.3211 -0.141,-0.4141c-0.155,-0.093 -0.305,-0.093 -0.45,0c-0.185,0.0974 -0.287,0.2354 -0.309,0.4156c-0.021,0.1802 0.067,0.2892 0.264,0.3284zM47.22,30.3214c0.112,0.1467 0.256,0.1961 0.436,0.1482c0.179,-0.048 0.309,-0.1541 0.39,-0.3197c0.067,-0.1046 0.087,-0.2005 0.06,-0.2863c-0.028,-0.0857 -0.077,-0.1497 -0.15,-0.1918c-0.071,-0.0421 -0.161,-0.0625 -0.267,-0.0625c-0.107,0 -0.204,0.0349 -0.294,0.1032c-0.09,0.0683 -0.159,0.1642 -0.205,0.2863c-0.045,0.1235 -0.035,0.2296 0.032,0.3211zM48.23,22.7722c-0.025,0.141 0.025,0.2442 0.146,0.311c0.123,0.0669 0.26,0.0828 0.412,0.048c0.19,-0.0378 0.324,-0.1512 0.402,-0.3357c0.079,-0.1846 0.026,-0.3284 -0.157,-0.4272c-0.163,-0.0814 -0.333,-0.08 -0.507,0.0072c-0.176,0.0872 -0.274,0.2195 -0.296,0.3997z" fill="#F15A24"/>
<path id="Vector_31" d="M68.874,38.7584c-0.754,0.0799 -1.394,0.0305 -1.92,-0.1482c-0.527,-0.1787 -0.95,-0.449 -1.268,-0.8094c-0.32,-0.3604 -0.537,-0.7876 -0.65,-1.2802c-0.115,-0.4926 -0.136,-1.023 -0.066,-1.5898c0.05,-0.5086 0.133,-0.9968 0.25,-1.4648c0.116,-0.4679 0.21,-0.946 0.279,-1.4342c0.067,-0.4301 0.115,-0.8545 0.144,-1.2759c0.028,-0.4214 0.028,-0.8472 0,-1.2802c-0.033,-0.2746 -0.079,-0.5551 -0.14,-0.8414c-0.062,-0.2848 -0.157,-0.5478 -0.286,-0.7861c-0.093,-0.1788 -0.204,-0.343 -0.336,-0.4927c-0.131,-0.1496 -0.292,-0.2572 -0.484,-0.3196c-0.324,-0.1454 -0.676,-0.1919 -1.053,-0.1425c-0.377,0.0495 -0.703,0.1802 -0.977,0.3895c-0.157,0.1337 -0.281,0.2834 -0.371,0.4476c-0.09,0.1642 -0.177,0.3342 -0.257,0.5086c-0.183,0.4068 -0.309,0.8355 -0.376,1.286c-0.069,0.449 -0.127,0.8995 -0.176,1.3485c-0.055,0.7252 -0.085,1.4445 -0.093,2.1609c-0.007,0.7164 -0.067,1.4357 -0.178,2.1579c-0.046,0.2732 -0.119,0.5464 -0.222,0.8181c-0.102,0.2718 -0.234,0.5246 -0.392,0.7557c-0.299,0.4054 -0.658,0.7149 -1.078,0.9314c-0.42,0.2165 -0.855,0.3386 -1.31,0.3662c-0.454,0.0291 -0.905,-0.0363 -1.354,-0.1933c-0.45,-0.1569 -0.854,-0.4068 -1.211,-0.7498c-0.322,-0.3022 -0.559,-0.6597 -0.713,-1.0753c-0.154,-0.4156 -0.266,-0.8399 -0.333,-1.273c-0.136,-0.8268 -0.208,-1.6522 -0.218,-2.4761c-0.01,-0.824 -0.035,-1.6479 -0.075,-2.4733c-0.085,-1.3354 -0.287,-2.6549 -0.604,-3.9569c-0.124,-0.4926 -0.253,-0.9765 -0.386,-1.4503c-0.134,-0.4737 -0.263,-0.9576 -0.385,-1.4502c-0.089,-0.3357 -0.159,-0.6699 -0.209,-1.0056c-0.05,-0.3342 -0.043,-0.667 0.023,-0.9998c0.043,-0.1947 0.104,-0.3792 0.186,-0.5551c0.081,-0.1743 0.19,-0.3386 0.33,-0.4926c0.297,-0.3647 0.661,-0.6655 1.09,-0.9009c0.428,-0.2355 0.877,-0.3866 1.34,-0.4534c0.405,-0.0494 0.825,-0.0393 1.257,0.029c0.432,0.0698 0.828,0.2151 1.19,0.4403c0.228,0.1425 0.421,0.3241 0.58,0.5435c0.158,0.2194 0.292,0.4578 0.402,0.715c0.128,0.3168 0.228,0.6132 0.299,0.8893c0.276,-0.2674 0.571,-0.5202 0.884,-0.7585c0.315,-0.2384 0.637,-0.4505 0.969,-0.6394c0.468,-0.2442 0.96,-0.4432 1.474,-0.5973c0.514,-0.154 1.041,-0.2354 1.581,-0.2426c1.89,-0.0146 3.593,0.5449 5.11,1.6798c0.777,0.5871 1.387,1.2875 1.832,2.1027c0.258,0.4766 0.474,0.978 0.645,1.5011c0.172,0.5246 0.319,1.0521 0.442,1.5839c0.104,0.513 0.197,1.0637 0.28,1.6537c0.083,0.59 0.151,1.1945 0.204,1.8136c0.053,0.619 0.083,1.2279 0.089,1.8266c0.005,0.5987 -0.017,1.1523 -0.067,1.6609c-0.073,0.6656 -0.16,1.3355 -0.263,2.0083c-0.103,0.6742 -0.28,1.2976 -0.535,1.8702c-0.254,0.5725 -0.611,1.0492 -1.074,1.4313c-0.461,0.3808 -1.07,0.6118 -1.823,0.6932zM54.017,21.8757c0.113,0.1017 0.238,0.1424 0.373,0.1264c0.136,-0.0159 0.252,-0.0624 0.35,-0.1395c0.099,-0.0755 0.163,-0.1729 0.195,-0.2891c0.031,-0.1163 0,-0.2253 -0.095,-0.3255c-0.113,-0.1003 -0.238,-0.1483 -0.373,-0.141c-0.135,0.0073 -0.257,0.0523 -0.364,0.1381c-0.108,0.0857 -0.177,0.1874 -0.21,0.3037c-0.031,0.1162 0.01,0.2252 0.123,0.3269zM55.275,28.9061c0.015,0.1569 0.095,0.2572 0.238,0.2993c0.144,0.0436 0.293,0.0363 0.449,-0.0189c0.135,-0.0552 0.234,-0.1569 0.295,-0.3022c0.062,-0.1454 0.045,-0.2689 -0.05,-0.3691c-0.151,-0.1599 -0.347,-0.1889 -0.591,-0.0872c-0.244,0.1017 -0.359,0.2615 -0.343,0.4766zM57.374,34.4862c-0.175,0.0944 -0.27,0.2049 -0.282,0.3313c-0.013,0.1279 0.022,0.2354 0.108,0.3255c0.084,0.0901 0.194,0.1366 0.33,0.1395c0.136,0.0029 0.272,-0.0712 0.41,-0.2253c0.159,-0.1918 0.157,-0.3647 -0.003,-0.5144c-0.16,-0.1511 -0.348,-0.17 -0.563,-0.0566zM58.203,24.7399c0.191,0.0247 0.343,-0.0073 0.45,-0.093c0.107,-0.0858 0.177,-0.1817 0.209,-0.2892c0.031,-0.1075 0.008,-0.2063 -0.066,-0.295c-0.076,-0.0901 -0.21,-0.138 -0.402,-0.1424c-0.154,-0.0029 -0.275,0.0334 -0.364,0.109c-0.088,0.077 -0.144,0.1686 -0.166,0.2761c-0.021,0.1075 -0.01,0.2063 0.038,0.295c0.045,0.0886 0.145,0.1351 0.3,0.1395zM58.294,30.9187c0.095,0.0814 0.225,0.1177 0.388,0.1119c0.164,-0.0058 0.294,-0.0378 0.392,-0.0945c0.118,-0.0944 0.183,-0.2209 0.198,-0.3778c0.012,-0.1569 -0.048,-0.2659 -0.18,-0.3284c-0.135,-0.0625 -0.269,-0.0799 -0.405,-0.0538c-0.135,0.0262 -0.253,0.0828 -0.351,0.1686c-0.099,0.0857 -0.159,0.1831 -0.18,0.2906c-0.022,0.1075 0.024,0.202 0.138,0.2834zM61.796,24.471c-0.042,0.1366 -0.034,0.2442 0.021,0.3241c0.056,0.0799 0.137,0.1308 0.243,0.1526c0.106,0.0218 0.217,0.0102 0.333,-0.0364c0.117,-0.0465 0.206,-0.1278 0.266,-0.2441c0.08,-0.1555 0.092,-0.2862 0.038,-0.3967c-0.056,-0.109 -0.14,-0.1744 -0.255,-0.1976c-0.116,-0.0218 -0.236,-0.0058 -0.363,0.0508c-0.127,0.0553 -0.222,0.1715 -0.283,0.3459zM62.85,21.3177c-0.043,0.1366 -0.034,0.2398 0.021,0.3095c0.056,0.0698 0.132,0.1163 0.229,0.1381c0.096,0.0218 0.201,0.0145 0.319,-0.0218c0.117,-0.0363 0.224,-0.1017 0.322,-0.1976c0.139,-0.1541 0.162,-0.3096 0.069,-0.4694c-0.093,-0.1584 -0.237,-0.2122 -0.43,-0.157c-0.116,0.0175 -0.223,0.064 -0.321,0.1395c-0.099,0.0771 -0.168,0.1628 -0.209,0.2602zM67.219,27.6287c0.134,0.0233 0.255,-0.0043 0.362,-0.0799c0.108,-0.0755 0.188,-0.1627 0.238,-0.2586c0.05,-0.0974 0.062,-0.1948 0.035,-0.2936c-0.027,-0.0988 -0.107,-0.1685 -0.241,-0.2121c-0.153,-0.0422 -0.289,-0.0262 -0.406,0.0494c-0.117,0.0755 -0.201,0.1671 -0.251,0.2732c-0.052,0.1075 -0.059,0.215 -0.022,0.3226c0.036,0.1089 0.132,0.1743 0.285,0.1976zM67.597,23.666c0.017,0.0988 0.069,0.1729 0.154,0.2238c0.086,0.0508 0.178,0.0683 0.275,0.0508c0.231,-0.0334 0.417,-0.1525 0.557,-0.3545c0.14,-0.202 0.114,-0.3648 -0.076,-0.4868c-0.208,-0.1613 -0.426,-0.1759 -0.65,-0.0451c-0.224,0.1323 -0.311,0.3357 -0.26,0.6118zM68.309,35.6269c-0.08,0.1162 -0.106,0.2238 -0.08,0.3211c0.027,0.0988 0.087,0.1744 0.182,0.2253c0.096,0.0508 0.206,0.0741 0.332,0.0668c0.125,-0.0073 0.237,-0.0581 0.335,-0.154c0.138,-0.1148 0.198,-0.2311 0.182,-0.3488c-0.017,-0.1177 -0.077,-0.2078 -0.182,-0.2688c-0.104,-0.061 -0.229,-0.0828 -0.374,-0.0683c-0.144,0.016 -0.277,0.0915 -0.395,0.2252zM70.22,30.4638c0.114,0.0814 0.234,0.109 0.36,0.0814c0.126,-0.0261 0.237,-0.0726 0.336,-0.1395c0.098,-0.0668 0.162,-0.1584 0.194,-0.2746c0.031,-0.1163 0,-0.2253 -0.094,-0.3255c-0.039,-0.0393 -0.096,-0.0712 -0.172,-0.093c-0.077,-0.0218 -0.144,-0.0335 -0.201,-0.0335c-0.213,-0.0043 -0.379,0.0901 -0.499,0.2819c-0.12,0.1933 -0.096,0.3604 0.076,0.5014z" fill="#F15A24"/>
<path id="Vector_32" d="M82.815,49.0437c-0.368,0.1061 -0.802,0.1395 -1.304,0.0988c-0.5,-0.0406 -1.02,-0.1177 -1.557,-0.231c-0.537,-0.1148 -1.049,-0.2776 -1.536,-0.4912c-0.487,-0.2136 -0.891,-0.4403 -1.214,-0.6786c-0.854,-0.5972 -1.448,-1.3979 -1.781,-2.402c-0.335,-1.0042 -0.443,-1.9589 -0.326,-2.8657c0.117,-0.9067 0.437,-1.6638 0.963,-2.2727c0.524,-0.6074 1.208,-0.8297 2.054,-0.6655c0.826,0.1642 1.631,0.3269 2.419,0.4897c0.787,0.1627 1.471,0.1584 2.054,-0.016c0.583,-0.1744 1.026,-0.5958 1.33,-1.2672c0.304,-0.6713 0.377,-1.7452 0.217,-3.2201c-0.059,0.0276 -0.176,0.0973 -0.351,0.2078c-0.176,0.1119 -0.368,0.2296 -0.572,0.3545c-0.206,0.125 -0.396,0.2442 -0.571,0.3546c-0.176,0.1119 -0.293,0.1817 -0.352,0.2078c-0.664,0.3604 -1.374,0.6379 -2.13,0.837c-0.755,0.1991 -1.49,0.2325 -2.2,0.1003c-0.71,-0.1322 -1.362,-0.4578 -1.958,-0.9765c-0.596,-0.5188 -1.064,-1.3311 -1.406,-2.437c-0.161,-0.5231 -0.29,-1.068 -0.383,-1.6333c-0.093,-0.5653 -0.161,-1.1364 -0.207,-1.7147c-0.154,-1.677 -0.107,-3.3946 0.146,-5.1485c0.251,-1.754 0.711,-3.3176 1.378,-4.6864c0.648,-1.3413 1.496,-2.4108 2.546,-3.2086c1.05,-0.7978 2.166,-1.3267 3.347,-1.5883c1.182,-0.2601 2.367,-0.2688 3.557,-0.0247c1.19,0.2441 2.267,0.7542 3.233,1.5273c0.966,0.773 1.753,1.7873 2.36,3.0429c0.607,1.2555 0.911,2.7493 0.91,4.4815c0.008,2.1652 -0.06,4.3216 -0.204,6.468c-0.146,2.1477 -0.339,4.2998 -0.58,6.4592c-0.337,2.9368 -1.173,5.3273 -2.506,7.1713c-1.334,1.8455 -3.126,3.088 -5.377,3.7273zM75.627,28.1344c0.09,0.2615 0.237,0.3516 0.441,0.2702c0.205,-0.0813 0.358,-0.2368 0.459,-0.465c0.08,-0.1714 0.094,-0.3444 0.041,-0.5187c-0.054,-0.1744 -0.148,-0.2776 -0.282,-0.3096c-0.212,-0.0334 -0.398,0.0553 -0.556,0.2689c-0.159,0.2121 -0.194,0.465 -0.104,0.7556zM78.17,20.5736c0.113,0.1482 0.255,0.186 0.431,0.1177c0.174,-0.0668 0.303,-0.202 0.384,-0.4025c0.082,-0.1991 0.105,-0.3793 0.07,-0.5391c-0.035,-0.1599 -0.094,-0.2761 -0.18,-0.3502c-0.085,-0.0741 -0.185,-0.0974 -0.301,-0.0727c-0.116,0.0262 -0.224,0.125 -0.324,0.295c-0.1,0.1424 -0.162,0.3066 -0.185,0.4941c-0.024,0.1874 0.012,0.34 0.106,0.4577zM77.833,43.0815c-0.046,0.3167 -0.023,0.5478 0.071,0.6946c0.093,0.1467 0.207,0.2063 0.343,0.1816c0.136,-0.0247 0.258,-0.1235 0.368,-0.295c0.11,-0.17 0.159,-0.4141 0.148,-0.7324c0.004,-0.202 -0.04,-0.34 -0.136,-0.4141c-0.094,-0.0741 -0.196,-0.0974 -0.302,-0.0727c-0.107,0.0262 -0.209,0.0959 -0.308,0.2093c-0.1,0.1133 -0.16,0.2557 -0.183,0.4287zM79.275,34.2826c0.19,0.1206 0.345,0.1163 0.463,-0.0101c0.119,-0.1265 0.19,-0.2776 0.213,-0.4491c0.023,-0.1729 -0.003,-0.3385 -0.076,-0.4998c-0.074,-0.1599 -0.197,-0.2137 -0.372,-0.1599c-0.272,0.0799 -0.43,0.2645 -0.476,0.5522c-0.046,0.2877 0.037,0.4766 0.247,0.5682zM79.427,27.6185c-0.1,0.1424 -0.147,0.2848 -0.14,0.4301c0.006,0.1453 0.041,0.2616 0.107,0.3488c0.066,0.0886 0.156,0.1409 0.271,0.1584c0.116,0.0174 0.233,-0.0451 0.352,-0.186c0.118,-0.141 0.18,-0.2921 0.184,-0.4505c0.004,-0.1584 -0.033,-0.2892 -0.107,-0.3924c-0.074,-0.1031 -0.174,-0.1555 -0.3,-0.1584c-0.126,-0.0029 -0.247,0.0814 -0.367,0.2514zM82.17,27.8118c0.245,0.2368 0.503,0.3661 0.771,0.3865c0.27,0.0218 0.532,-0.0523 0.786,-0.2194c0.254,-0.1671 0.476,-0.4069 0.667,-0.7208c0.19,-0.3124 0.339,-0.6844 0.444,-1.116c0.15,-0.6888 0.13,-1.2381 -0.064,-1.6464c-0.193,-0.4084 -0.461,-0.6743 -0.806,-0.7978c-0.344,-0.1235 -0.707,-0.0814 -1.087,0.1264c-0.38,0.2078 -0.693,0.5827 -0.937,1.1262c-0.223,0.4854 -0.321,1.0027 -0.296,1.552c0.026,0.5493 0.199,0.9867 0.52,1.3107zM83.094,46.9715c-0.046,0.3168 0.031,0.5057 0.233,0.5682c0.201,0.0625 0.38,-0.0058 0.54,-0.2034c0.118,-0.1134 0.184,-0.2703 0.198,-0.4723c0.015,-0.202 -0.045,-0.3473 -0.178,-0.4374c-0.152,-0.1191 -0.312,-0.1162 -0.477,0.0102c-0.167,0.1264 -0.273,0.3037 -0.316,0.5333zM84.104,20.3673c-0.007,0.2891 0.081,0.4563 0.263,0.5042c0.181,0.048 0.343,-0.0276 0.483,-0.2267l0.03,-0.0421c0.137,-0.1119 0.222,-0.2689 0.257,-0.4708c0.033,-0.2006 -0.016,-0.375 -0.147,-0.5232c-0.19,-0.1482 -0.383,-0.1395 -0.579,0.0291c-0.197,0.1685 -0.298,0.4112 -0.306,0.7295zM83.975,42.5336c0.015,0.2311 0.088,0.3706 0.222,0.4171c0.134,0.0465 0.26,0.0276 0.377,-0.0567c0.117,-0.0552 0.226,-0.1816 0.327,-0.3822c0.1,-0.1424 0.141,-0.2848 0.126,-0.4301c-0.016,-0.1453 -0.062,-0.2543 -0.137,-0.3284c-0.076,-0.0741 -0.172,-0.1119 -0.288,-0.1148c-0.115,-0.0029 -0.222,0.0668 -0.322,0.2092c-0.079,0.0843 -0.149,0.1846 -0.209,0.2979c-0.06,0.1148 -0.093,0.2427 -0.096,0.388zM84.838,29.9973c-0.155,0.0552 -0.263,0.1453 -0.324,0.2732c-0.061,0.1279 -0.093,0.2645 -0.096,0.4098c-0.003,0.1453 0.033,0.2674 0.107,0.3705c0.075,0.1032 0.189,0.1424 0.345,0.1163c0.174,-0.0247 0.301,-0.1148 0.382,-0.2732c0.08,-0.157 0.118,-0.3066 0.112,-0.4519c-0.007,-0.1439 -0.052,-0.2674 -0.136,-0.3706c-0.084,-0.1032 -0.214,-0.1279 -0.388,-0.0741zM87.785,39.0722c0.115,0.061 0.235,0.0712 0.362,0.0305c0.125,-0.0407 0.234,-0.109 0.323,-0.2092c0.088,-0.0988 0.15,-0.2194 0.181,-0.3633c0.031,-0.1439 0.011,-0.2877 -0.063,-0.4345c-0.093,-0.1468 -0.211,-0.2136 -0.357,-0.2034c-0.144,0.0116 -0.277,0.0741 -0.394,0.186c-0.137,0.1119 -0.219,0.2833 -0.243,0.5144c-0.024,0.231 0.038,0.3909 0.191,0.481zM88.581,25.6684c-0.193,-0.0335 -0.347,0.0072 -0.466,0.1191c-0.118,0.1134 -0.188,0.2485 -0.211,0.4069c-0.023,0.1584 -0.003,0.3037 0.063,0.4345c0.064,0.1308 0.193,0.1991 0.385,0.2034c0.135,0.0029 0.248,-0.0523 0.336,-0.1656c0.09,-0.1134 0.15,-0.2413 0.183,-0.3851c0.033,-0.1439 0.026,-0.2732 -0.02,-0.3895c-0.046,-0.1162 -0.136,-0.1903 -0.27,-0.2223zM89.085,32.7815c-0.16,0.2282 -0.198,0.465 -0.117,0.7121c0.082,0.247 0.229,0.3444 0.442,0.2921c0.135,-0.0247 0.248,-0.0945 0.337,-0.2093c0.09,-0.1133 0.15,-0.2412 0.183,-0.3851c0.032,-0.1438 0.03,-0.2732 -0.006,-0.3894c-0.036,-0.1163 -0.112,-0.1904 -0.226,-0.2224c-0.25,-0.0639 -0.453,0.0044 -0.611,0.202z" fill="#F15A24"/>
<path id="Vector_33" d="M125.437,42.1543c-0.871,0.1947 -1.747,0.2877 -2.622,0.2761c-0.878,-0.0116 -1.749,-0.0756 -2.613,-0.1933c-1.039,-0.1424 -2.069,-0.4068 -3.092,-0.7934c-1.022,-0.3865 -1.93,-0.962 -2.722,-1.7263c-0.51,-0.4825 -0.965,-1.0419 -1.365,-1.6799c-0.4,-0.6364 -0.698,-1.3107 -0.894,-2.0213c-0.25,-0.8879 -0.368,-1.8121 -0.357,-2.7741c0.011,-0.9605 0.134,-1.8891 0.367,-2.7856c0.276,-1.0914 0.694,-2.1362 1.257,-3.133c0.563,-0.9969 1.219,-1.8877 1.97,-2.6753c0.79,-0.8443 1.707,-1.5243 2.75,-2.0388c1.043,-0.5144 2.116,-0.8079 3.216,-0.8806c0.791,-0.0407 1.58,0.0218 2.367,0.1875c0.787,0.1656 1.533,0.433 2.237,0.8021c0.21,0.1032 0.41,0.2151 0.6,0.3372c0.19,0.122 0.37,0.2543 0.54,0.3952c0.057,0.0596 0.094,0.0901 0.113,0.0916c0.607,0.4068 1.16,0.9343 1.655,1.5839c0.496,0.6496 0.832,1.3485 1.009,2.0983c0.051,0.2761 0.093,0.5508 0.126,0.8269c0.033,0.2761 0.025,0.5493 -0.019,0.8239c-0.05,0.4694 -0.17,0.9228 -0.363,1.3602c-0.193,0.4374 -0.434,0.8384 -0.721,1.2032c-0.289,0.3662 -0.619,0.6815 -0.99,0.9474c-0.373,0.266 -0.763,0.4636 -1.17,0.59c-0.737,0.1991 -1.486,0.2587 -2.246,0.1831c-0.76,-0.077 -1.504,-0.202 -2.233,-0.3764c-0.115,-0.0217 -0.282,-0.0552 -0.504,-0.1002c-0.221,-0.0436 -0.446,-0.0887 -0.677,-0.1337c-0.23,-0.0451 -0.451,-0.0785 -0.663,-0.1032c-0.211,-0.0247 -0.375,-0.0087 -0.493,0.0465c-0.214,0.093 -0.3,0.2674 -0.257,0.5232c0.042,0.2557 0.157,0.4737 0.347,0.6553c0.17,0.1613 0.365,0.2979 0.583,0.4113c0.219,0.1133 0.433,0.2121 0.644,0.295c0.498,0.1685 1,0.3124 1.509,0.433c0.509,0.1206 1.023,0.1758 1.543,0.1686c0.481,-0.0088 0.96,-0.0553 1.434,-0.1425c0.474,-0.0871 0.953,-0.1249 1.434,-0.1133c0.27,0.0058 0.543,0.0421 0.822,0.1075c0.277,0.0654 0.521,0.1788 0.73,0.3401c0.245,0.202 0.443,0.4519 0.59,0.7498c0.147,0.2979 0.255,0.6045 0.325,0.9198c0.138,0.7688 0.082,1.5273 -0.167,2.2757c-0.248,0.7498 -0.658,1.3718 -1.228,1.8687c-0.395,0.3444 -0.833,0.5987 -1.319,0.7629c-0.485,0.1657 -0.971,0.3008 -1.455,0.4069zM113.921,33.5284c-0.212,-0.0247 -0.372,0.0116 -0.48,0.1061c-0.109,0.0959 -0.169,0.202 -0.182,0.3197c-0.013,0.1177 0.024,0.2267 0.109,0.3255c0.084,0.1003 0.223,0.1337 0.417,0.0974c0.29,-0.0524 0.453,-0.1948 0.487,-0.4302c0.034,-0.2339 -0.083,-0.3749 -0.351,-0.4199zM116.516,27.5298c-0.118,0.154 -0.147,0.3052 -0.083,0.4534c0.065,0.1482 0.183,0.2252 0.356,0.2296c0.154,0.0029 0.3,-0.0465 0.437,-0.1511c0.137,-0.1047 0.197,-0.2354 0.183,-0.3924c-0.014,-0.2165 -0.127,-0.3313 -0.339,-0.3458c-0.211,-0.0146 -0.397,0.0552 -0.554,0.2078zM117.206,32.7829c0.074,0.1003 0.17,0.1468 0.286,0.1396c0.116,-0.0073 0.223,-0.0393 0.32,-0.096c0.097,-0.0566 0.181,-0.138 0.251,-0.2441c0.07,-0.1061 0.096,-0.218 0.08,-0.3371c-0.017,-0.1177 -0.077,-0.2035 -0.183,-0.2543c-0.105,-0.0509 -0.215,-0.0596 -0.332,-0.0233c-0.195,0.0349 -0.342,0.1395 -0.442,0.3139c-0.1,0.1744 -0.094,0.3415 0.017,0.4999zM117.352,39.1114c-0.176,0.1134 -0.266,0.234 -0.269,0.3619c-0.003,0.1278 0.039,0.2368 0.123,0.3269c0.084,0.0901 0.204,0.1366 0.359,0.141c0.154,0.0043 0.3,-0.0712 0.438,-0.2253c0.119,-0.1148 0.189,-0.2209 0.21,-0.3182c0.042,-0.1555 0.012,-0.279 -0.093,-0.3706c-0.104,-0.0901 -0.234,-0.1177 -0.388,-0.0828c-0.136,0.016 -0.262,0.0727 -0.38,0.1671zM120.362,27.5618c-0.18,0.2703 -0.219,0.51 -0.117,0.7178c0.101,0.2078 0.265,0.3837 0.494,0.5261c0.229,0.1424 0.491,0.2325 0.788,0.2688c0.299,0.0363 0.555,0.0174 0.768,-0.0552c0.174,-0.0552 0.331,-0.1395 0.468,-0.2543c0.137,-0.1148 0.266,-0.2485 0.386,-0.4025c0.1,-0.1352 0.176,-0.3096 0.228,-0.5246c0.053,-0.2151 0.033,-0.4011 -0.06,-0.5609c-0.092,-0.1584 -0.23,-0.2892 -0.41,-0.3924c-0.181,-0.1017 -0.367,-0.1657 -0.56,-0.1904c-0.345,-0.0668 -0.708,-0.0218 -1.087,0.1366c-0.38,0.1584 -0.68,0.4011 -0.898,0.7295zM120.688,37.3952c0.092,0.1599 0.23,0.2369 0.414,0.2311c0.183,-0.0058 0.324,-0.0857 0.424,-0.2398c0.119,-0.154 0.156,-0.3095 0.111,-0.4679c-0.044,-0.1584 -0.154,-0.2383 -0.327,-0.2427c-0.211,-0.0436 -0.395,0.0204 -0.554,0.1933c-0.158,0.1729 -0.181,0.3488 -0.07,0.5275zM121.499,23.3229c-0.174,0.016 -0.306,0.0712 -0.394,0.1671c-0.089,0.096 -0.135,0.1977 -0.137,0.3052c-0.003,0.1075 0.038,0.2064 0.122,0.2965c0.085,0.09 0.215,0.1177 0.389,0.0828c0.154,-0.016 0.271,-0.0712 0.351,-0.1686c0.079,-0.0959 0.12,-0.1976 0.123,-0.3066c0.003,-0.109 -0.034,-0.202 -0.108,-0.2819c-0.076,-0.0799 -0.19,-0.1119 -0.345,-0.0959zM124.689,30.5756c-0.174,0.016 -0.306,0.077 -0.394,0.1817c-0.089,0.106 -0.13,0.2136 -0.123,0.3211c0.007,0.1075 0.053,0.202 0.138,0.2834c0.085,0.0799 0.215,0.1133 0.389,0.0973c0.154,-0.016 0.271,-0.077 0.351,-0.1831c0.079,-0.1061 0.12,-0.2121 0.123,-0.3211c0.003,-0.109 -0.038,-0.202 -0.124,-0.2819c-0.084,-0.0799 -0.204,-0.1119 -0.36,-0.0974zM124.993,38.7903c-0.1,0.154 -0.093,0.2964 0.019,0.4272c0.113,0.1308 0.265,0.1787 0.46,0.1439c0.154,-0.0349 0.287,-0.1061 0.395,-0.2107c0.109,-0.1047 0.146,-0.2369 0.11,-0.3953c-0.052,-0.2165 -0.2,-0.3139 -0.441,-0.2892c-0.241,0.0233 -0.423,0.1323 -0.543,0.3255zM126.383,26.0258c-0.157,0.0945 -0.241,0.2049 -0.253,0.3328c-0.013,0.1278 0.025,0.231 0.109,0.3109c0.084,0.08 0.2,0.1279 0.344,0.141c0.144,0.0131 0.286,-0.0465 0.423,-0.1816c0.217,-0.2108 0.23,-0.4011 0.041,-0.5726c-0.188,-0.1715 -0.41,-0.1816 -0.664,-0.0305z" fill="#F15A24"/>
<path id="Vector_34" d="M0.2329,40.8551c-0.1814,0.1759 0.9886,1.5317 1.1657,1.7336c12.4544,14.2482 26.7424,3.3321 40.9944,1.0071c5.332,-0.869 10.946,-0.9678 16.326,-0.5246c4.434,0.3647 8.772,1.4212 13.179,1.9443c-1.275,-0.9169 -3.019,-1.6115 -4.489,-2.1579c-9.347,-3.4731 -19.811,-4.5135 -29.561,-2.3817c-12.393,2.7101 -21.303,10.6225 -34.0323,2.5749c-0.6086,-0.385 -3.0928,-2.6679 -3.5828,-2.1971z" fill="#158846" stroke="#F15A24" stroke-miterlimit="10"/>
</g>
<g id="Group_9">
<path id="Vector_35" d="M101.316,19.6132c0.687,-1.6043 0.826,-3.3771 1.266,-5.0482c0.348,-1.039 1.237,-4.621 1.583,-5.4246c0.333,-0.3895 5.688,-1.94 6.624,-2.3076c-0.073,0.7047 0.953,2.4151 0.508,2.9295c-0.177,0.2049 -4.465,1.2207 -5.087,1.6799c-0.458,3.287 -1.467,6.4854 -2.314,9.6881c-1.428,-0.635 -1.464,-0.8399 -2.578,-1.5156z" fill="#F15A24"/>
<g id="Group_10">
<path id="Vector_36" d="M101.316,19.6132c1.115,0.6757 1.15,0.8806 2.579,1.5156c0.308,0.1366 1.077,0.8341 1.431,0.9082c0.359,0.5304 0.337,0.7993 0,1.3355c-0.201,0.3197 -2.63,3.4992 -2.814,3.6343c-0.933,0.6844 -3.833,0.5377 -4.236,1.5302c-0.133,0.651 0.282,0.4243 0.716,0.4563c3.276,0.2412 5.543,-2.4573 8.578,-2.7988c0.212,0.1991 -1.537,2.1681 -1.782,2.4602c-2.228,2.6345 -4.59,5.163 -6.779,7.8339l1.726,0.4665l-2.022,-0.0305c-0.475,0.3545 -0.004,0.5333 0.418,0.5943c0.588,0.0872 3.212,-0.061 3.33,0.0596c0.02,1.6333 -2.282,2.0925 -2.378,3.7782c1.193,0.3923 2.503,0.4243 3.756,0.3633c-3.987,1.2468 -8.498,-1.1916 -10.1,-4.9742c-2.191,-6.2761 -0.167,-13.1524 -0.481,-19.6306c3.107,-0.2688 5.514,0.9504 8.061,2.4965z" fill="#F15A24"/>
<path id="Vector_37" d="M105.326,22.037c1.877,0.3894 4.204,-0.6729 6.089,-0.7775c-0.333,3.0923 -0.74,13.7861 -0.803,14.0215c-0.123,0.4563 0.027,1.0056 -0.166,1.5708c-0.623,1.8223 -2.981,3.6256 -4.574,4.3173l-1.746,0.558c-1.345,0.0277 -2.757,0.0683 -4.044,-0.3691c0.096,-1.6856 2.397,-2.1448 2.377,-3.7781c-0.117,-0.1207 -2.743,0.0276 -3.33,-0.0596c-0.421,-0.0625 -0.893,-0.2398 -0.417,-0.5944l2.022,0.0306l-1.726,-0.4665c2.188,-2.6709 4.551,-5.1994 6.778,-7.8339c0.247,-0.2921 1.994,-2.2626 1.783,-2.4602c-3.037,0.3415 -5.303,3.04 -8.578,2.7987c-0.435,-0.0319 -0.849,0.1948 -0.716,-0.4562c0.404,-0.9925 3.303,-0.8472 4.236,-1.5302c0.184,-0.1352 2.612,-3.3161 2.814,-3.6343c0.337,-0.5363 0.36,-0.8051 0,-1.3355zM108.299,25.9125l-0.004,0.2935c0.19,-0.0944 0.191,-0.1932 0.004,-0.2935zM109.255,29.1676c-0.395,-0.0088 -0.719,-0.3808 -1.142,-0.1817c-1.675,0.7862 0.746,2.4224 1.142,0.1817z" fill="#F15A24"/>
<path id="Vector_38" d="M109.255,29.1676c-0.396,2.2407 -2.819,0.6059 -1.142,-0.1817c0.424,-0.1991 0.749,0.1715 1.142,0.1817z" fill="#F15A24"/>
<path id="Vector_39" d="M108.299,25.9126c0.186,0.1017 0.184,0.1991 -0.004,0.2935z" fill="#F15A24"/>
</g>
</g>
<path id="Vector_40" d="M94.856,29.5804c0.068,0.0712 0.179,0.109 0.335,0.1134c0.19,0.0043 0.334,-0.0799 0.433,-0.2529c0.098,-0.1729 0.08,-0.3139 -0.056,-0.4228c-0.102,-0.0727 -0.209,-0.1018 -0.322,-0.0858c-0.112,0.0146 -0.212,0.0523 -0.3,0.1119c-0.087,0.0596 -0.145,0.141 -0.174,0.2456c-0.028,0.1046 0,0.202 0.084,0.2906zM96.561,23.9655c-0.123,0.1017 -0.173,0.2063 -0.149,0.3124c0.023,0.1061 0.082,0.186 0.176,0.2412c0.093,0.0552 0.206,0.0799 0.334,0.0741c0.13,-0.0058 0.247,-0.077 0.354,-0.215c0.072,-0.1032 0.096,-0.1991 0.072,-0.2878c-0.024,-0.0886 -0.079,-0.1555 -0.163,-0.2005c-0.086,-0.0451 -0.184,-0.0654 -0.296,-0.0596c-0.113,0.0058 -0.221,0.0523 -0.327,0.1366zM97.098,35.6052c0.187,0.1279 0.376,0.1322 0.568,0.0131c0.192,-0.1177 0.275,-0.3008 0.246,-0.5464c-0.016,-0.0887 -0.066,-0.1555 -0.15,-0.2005c-0.086,-0.0451 -0.171,-0.0611 -0.257,-0.0451c-0.19,0.0305 -0.349,0.1366 -0.473,0.3182c-0.124,0.1817 -0.103,0.3357 0.067,0.4621zM97.898,32.2833c0.137,0.0392 0.258,0.0276 0.363,-0.0305c0.104,-0.0582 0.18,-0.141 0.225,-0.2442c0.046,-0.1046 0.052,-0.2005 0.02,-0.2891c-0.032,-0.0887 -0.117,-0.1424 -0.254,-0.1642c-0.137,-0.0204 -0.254,-0.0015 -0.35,0.0581c-0.097,0.0596 -0.167,0.1366 -0.213,0.2325c-0.045,0.0959 -0.055,0.1875 -0.033,0.2761c0.025,0.0886 0.105,0.1424 0.242,0.1642zM101.361,36.9682c-0.125,0.1381 -0.145,0.2776 -0.062,0.42c0.083,0.1424 0.212,0.1976 0.384,0.1671c0.105,-0.0319 0.2,-0.0828 0.289,-0.1511c0.087,-0.0683 0.15,-0.1453 0.186,-0.2325c0.037,-0.1046 0.03,-0.1918 -0.02,-0.263c-0.05,-0.0712 -0.123,-0.1163 -0.217,-0.1366c-0.095,-0.0204 -0.195,-0.0131 -0.299,0.0189c-0.104,0.0334 -0.191,0.0915 -0.263,0.1772zM102.303,34.2029c-0.072,0.1395 -0.08,0.2529 -0.02,0.3415c0.059,0.0901 0.139,0.1439 0.242,0.1642c0.103,0.0203 0.211,0.0044 0.324,-0.045c0.113,-0.0495 0.197,-0.1526 0.253,-0.3096c0.037,-0.122 0.026,-0.2179 -0.033,-0.2906c-0.058,-0.0712 -0.131,-0.1119 -0.217,-0.1235c-0.086,-0.0102 -0.181,0.0043 -0.286,0.0465c-0.104,0.0421 -0.193,0.1133 -0.263,0.218zM105.521,29.1997c0.118,0.0552 0.24,0.0712 0.361,0.048c0.121,-0.0233 0.226,-0.0742 0.314,-0.1512c0.087,-0.077 0.142,-0.1584 0.16,-0.2456c0.019,-0.0871 -0.021,-0.1758 -0.123,-0.2659c-0.084,-0.0712 -0.2,-0.1061 -0.347,-0.1002c-0.147,0.0058 -0.264,0.0421 -0.351,0.1104c-0.106,0.0857 -0.169,0.1933 -0.189,0.324c-0.02,0.1308 0.037,0.2253 0.175,0.2805zM106.313,34.1128c-0.172,-0.0044 -0.307,0.032 -0.402,0.109c-0.098,0.077 -0.159,0.1627 -0.188,0.2587c-0.028,0.0959 -0.008,0.1845 0.059,0.2644c0.067,0.08 0.187,0.1221 0.359,0.1265c0.12,0.0029 0.224,-0.0349 0.312,-0.1105c0.088,-0.077 0.142,-0.1584 0.16,-0.2456c0.019,-0.0872 0.005,-0.1743 -0.045,-0.2644c-0.05,-0.0887 -0.136,-0.1352 -0.256,-0.1381zM106.549,24.8839c-0.141,0.1714 -0.146,0.3298 -0.011,0.4737c0.134,0.1438 0.307,0.1569 0.515,0.0378c0.158,-0.0843 0.242,-0.1831 0.253,-0.2965c0.012,-0.1133 -0.021,-0.2107 -0.097,-0.2921c-0.076,-0.0813 -0.174,-0.122 -0.294,-0.1249c-0.12,-0.0029 -0.243,0.0639 -0.367,0.202zM108.098,30.7342c0.134,0.1439 0.31,0.1701 0.528,0.0785c0.217,-0.0915 0.32,-0.234 0.307,-0.4272c-0.031,-0.141 -0.107,-0.2296 -0.227,-0.2689c-0.12,-0.0377 -0.25,-0.0319 -0.388,0.0175c-0.14,0.0494 -0.232,0.1395 -0.278,0.2703c-0.045,0.1308 -0.027,0.2412 0.058,0.3298zM109.32,37.2342c0.102,0.0901 0.213,0.1322 0.333,0.1264c0.12,-0.0058 0.225,-0.048 0.313,-0.1235c0.089,-0.077 0.146,-0.1671 0.174,-0.2718c0.029,-0.1046 -0.008,-0.2019 -0.11,-0.292c-0.084,-0.0901 -0.187,-0.1265 -0.308,-0.1119c-0.122,0.0145 -0.226,0.0566 -0.313,0.1235c-0.089,0.0683 -0.146,0.154 -0.174,0.2586c-0.029,0.1047 0,0.202 0.084,0.2907z" fill="white"/>
<path id="Vector_41" d="M101.072,20.7859c-0.157,0.0944 -0.241,0.2049 -0.253,0.3328c-0.013,0.1278 0.024,0.231 0.109,0.3109c0.084,0.08 0.2,0.1279 0.344,0.141c0.144,0.0131 0.286,-0.0465 0.423,-0.1817c0.217,-0.2107 0.23,-0.401 0.041,-0.5725c-0.188,-0.1715 -0.41,-0.1816 -0.664,-0.0305z" fill="white"/>
<path id="Vector_42" d="M102.042,24.4812c-0.157,0.0945 -0.241,0.2049 -0.253,0.3328c-0.013,0.1278 0.024,0.231 0.109,0.3109c0.084,0.08 0.2,0.1279 0.344,0.141c0.144,0.0131 0.286,-0.0465 0.423,-0.1816c0.217,-0.2108 0.23,-0.4011 0.041,-0.5726c-0.188,-0.1715 -0.41,-0.1816 -0.664,-0.0305z" fill="white"/>
</g></svg>