<svg viewBox="0 0 74 16" fill="none" xmlns="http://www.w3.org/2000/svg" xmlns:xlink="http://www.w3.org/1999/xlink" id="a2f5e572" x="0" y="0"><g id="Frame 21" data-node-id="253:59"><g clip-path="url(#clip0_253_59)"><path id="Vector_18" data-node-id="326:386" d="M71.61,3c0.05,0.64 0.22,1.26 0.5,1.77v0c0.36,0.66 0.8,1.01 1.19,1.18c0.07,0.03 0.14,0.06 0.2,0.08v1.22c-0.35,-0.11 -0.71,-0.35 -1.04,-0.74l-0.88,-1.02v5.89c0,1.06 -0.27,2 -0.67,2.65c-0.41,0.66 -0.91,0.97 -1.37,0.97c-0.42,0 -0.92,-0.28 -1.34,-0.93c-0.41,-0.63 -0.7,-1.57 -0.7,-2.69c0,-1.15 0.32,-2.14 0.78,-2.8c0.34,-0.48 0.73,-0.74 1.11,-0.79v1.22c-0.07,0.01 -0.14,0.03 -0.2,0.05c-0.3,0.08 -0.54,0.27 -0.73,0.5c-0.37,0.45 -0.58,1.11 -0.58,1.82c0,0.6 0.15,1.17 0.42,1.6c0.26,0.42 0.69,0.78 1.24,0.78v0c0.53,0 0.96,-0.33 1.23,-0.75c0.27,-0.43 0.42,-0.99 0.43,-1.54v-8.47z" fill="white" stroke="white"/><g id="Group 66" data-node-id="326:387">
<path id="Vector_19" data-node-id="326:388" d="M8.83,8.5l-2.66,2v-4z" fill="white" stroke="white"/>
<path id="Vector_20" data-node-id="326:389" d="M7,2.5c6,0 6,0 6,6c0,6 0,6 -6,6c-6,0 -6,0 -6,-6c0,-6 0,-6 6,-6z" stroke="white" stroke-width="2" stroke-linecap="round" stroke-linejoin="round"/>
</g><path id="Vector_21" data-node-id="326:390" d="M53.76,13.37c0.38,0.83 1.11,1.43 2.04,1.43h4.4c0.64,0 1.24,-0.31 1.66,-0.81c0.14,-0.18 0.26,-0.37 0.36,-0.58c-0.12,0.28 -0.27,0.53 -0.45,0.75c-0.46,0.55 -1.07,0.84 -1.67,0.84h-4.2c-0.89,0 -1.73,-0.63 -2.14,-1.63zM59.99,9.76c-0.05,0.59 -0.27,1.13 -0.61,1.54c-0.38,0.46 -0.88,0.7 -1.38,0.7c-0.5,0 -1,-0.24 -1.38,-0.7c-0.34,-0.41 -0.56,-0.95 -0.61,-1.54v-0.04c0.04,0.5 0.23,0.99 0.55,1.37c0.36,0.44 0.88,0.71 1.44,0.71c0.56,0 1.08,-0.27 1.44,-0.71c0.32,-0.38 0.51,-0.87 0.55,-1.37zM58,7c0.5,0 1,0.24 1.38,0.7c0.35,0.41 0.57,0.97 0.61,1.58c-0.04,-0.51 -0.23,-0.99 -0.55,-1.37c-0.36,-0.44 -0.88,-0.71 -1.44,-0.71c-0.56,0 -1.08,0.27 -1.44,0.71c-0.32,0.38 -0.51,0.86 -0.55,1.37c0.04,-0.61 0.26,-1.17 0.61,-1.58c0.33,-0.41 0.76,-0.64 1.19,-0.69zM60.62,6.1c0.01,0 0.01,0 0.02,0c0.01,0.01 0.03,0.02 0.04,0.04c0.04,0.04 0.07,0.12 0.07,0.21c0,0.09 -0.03,0.17 -0.07,0.21c-0.01,0.02 -0.03,0.03 -0.04,0.03c-0.01,0.01 -0.01,0.01 -0.02,0.01c0,0 0,0 -0.01,-0.01c-0.01,0 -0.03,-0.01 -0.04,-0.03c-0.04,-0.04 -0.07,-0.12 -0.07,-0.21c0,-0.09 0.03,-0.17 0.07,-0.21c0.01,-0.02 0.03,-0.03 0.04,-0.04c0.01,0 0.01,0 0.01,0zM55.9,4h4.2c0.88,0 1.72,0.63 2.13,1.62c-0.37,-0.82 -1.1,-1.42 -2.03,-1.42h-4.4c-0.64,0 -1.24,0.31 -1.66,0.81c-0.14,0.18 -0.26,0.37 -0.36,0.58c0.12,-0.28 0.27,-0.53 0.45,-0.75c0.46,-0.55 1.07,-0.84 1.67,-0.84z" fill="white" stroke="white"/><g id="Group_6" data-node-id="326:391">
<path id="Vector_22" data-node-id="326:392" d="M43.35,5.3v1.19l0.96,0.21c0.21,-0.48 0.5,-0.85 0.82,-1.08c0.31,-0.24 0.64,-0.33 0.95,-0.31h0.02h0.01c0.52,0 0.9,0.12 1.18,0.3c0.29,0.19 0.52,0.46 0.71,0.85c0.37,0.78 0.5,1.92 0.5,3.32v5.22h-1.2v-4.57c0,-0.61 -0.04,-1.38 -0.28,-2.01c-0.12,-0.33 -0.3,-0.64 -0.59,-0.88c-0.29,-0.24 -0.66,-0.38 -1.09,-0.38c-0.41,0 -0.77,0.11 -1.06,0.33c-0.29,0.21 -0.48,0.5 -0.61,0.81c-0.25,0.59 -0.3,1.35 -0.3,2.04v4.66h-1.2v-9.7zM39.1,1c0.05,0 0.1,0.01 0.16,0.05c0.07,0.04 0.14,0.1 0.21,0.2c0.07,0.1 0.13,0.23 0.17,0.38c0.04,0.15 0.06,0.31 0.06,0.47v0.01c0,0.25 -0.05,0.49 -0.14,0.68c-0.09,0.19 -0.2,0.31 -0.3,0.37c-0.09,0.05 -0.16,0.06 -0.23,0.04c-0.08,-0.02 -0.19,-0.09 -0.29,-0.24c-0.11,-0.15 -0.19,-0.36 -0.22,-0.61c-0.03,-0.24 -0.02,-0.49 0.05,-0.72c0.06,-0.23 0.16,-0.39 0.27,-0.5c0.1,-0.1 0.2,-0.13 0.26,-0.13z" fill="white" stroke="white"/>
<path id="Vector_23" data-node-id="326:393" d="M39.7,5.31v9.69h-1.2v-9.69z" fill="white" stroke="white"/>
</g><g id="ic:round-facebook" data-node-id="326:394">
<rect x="18" y="0.5" width="15" height="15" stroke="white"/>
<path id="Vector_24" data-node-id="326:395" d="M31.75,8c0,-3.45 -2.8,-6.25 -6.25,-6.25c-3.45,0 -6.25,2.8 -6.25,6.25c0,3.03 2.15,5.54 5,6.13v-4.25h-1.25v-1.88h1.25v-1.56c0,-1.21 0.98,-2.19 2.19,-2.19h1.56v1.88h-1.25c-0.34,0 -0.63,0.28 -0.63,0.62v1.25h1.88v1.88h-1.88v4.34c3.16,-0.31 5.63,-2.98 5.63,-6.22z" fill="white"/>
</g></g></g><defs><clipPath id="clip0_253_59">
<rect width="1280" height="3707" fill="white" x="-1115" y="-3671.5"/>
</clipPath></defs></svg>