<svg viewBox="0 0 20 20" fill="none" xmlns="http://www.w3.org/2000/svg" xmlns:xlink="http://www.w3.org/1999/xlink" x="0" y="0"><path id="Vector_43" d="M16,16c0.53,0 1.04,0.2107 1.41,0.5858c0.38,0.3751 0.59,0.8838 0.59,1.4142c0,0.5304 -0.21,1.0391 -0.59,1.4142c-0.37,0.3751 -0.88,0.5858 -1.41,0.5858c-0.53,0 -1.04,-0.2107 -1.41,-0.5858c-0.38,-0.3751 -0.59,-0.8838 -0.59,-1.4142c0,-1.11 0.89,-2 2,-2zM0,0h3.27l0.94,2h14.79c0.27,0 0.52,0.1054 0.71,0.2929c0.18,0.1875 0.29,0.4419 0.29,0.7071c0,0.17 -0.05,0.34 -0.12,0.5l-3.58,6.47c-0.34,0.61 -1,1.03 -1.75,1.03h-7.45l-0.9,1.63l-0.03,0.12c0,0.0663 0.03,0.1299 0.07,0.1768c0.05,0.0469 0.11,0.0732 0.18,0.0732h11.58v2h-12c-0.53,0 -1.04,-0.2107 -1.41,-0.5858c-0.38,-0.3751 -0.59,-0.8838 -0.59,-1.4142c0,-0.35 0.09,-0.68 0.24,-0.96l1.36,-2.45l-3.6,-7.59h-2zM6,16c0.53,0 1.04,0.2107 1.41,0.5858c0.38,0.3751 0.59,0.8838 0.59,1.4142c0,0.5304 -0.21,1.0391 -0.59,1.4142c-0.37,0.3751 -0.88,0.5858 -1.41,0.5858c-0.53,0 -1.04,-0.2107 -1.41,-0.5858c-0.38,-0.3751 -0.59,-0.8838 -0.59,-1.4142c0,-1.11 0.89,-2 2,-2zM15,9l2.78,-5h-12.64l2.36,5z" fill="currentColor"/></svg>