<svg viewBox="0 0 26.5 11" fill="none" xmlns="http://www.w3.org/2000/svg" xmlns:xlink="http://www.w3.org/1999/xlink" id="c2de460b" x="0" y="0"><g id="Frame 17" data-node-id="1:344" clip-path="url(#clip0_1_344)"><path id="Vector" data-node-id="11:2" d="M6,1.5c5,0 5,0 5,4c0,4 0,4 -5,4c-5,0 -5,0 -5,-4c0,-4 0,-4 5,-4z" stroke="#F15A24" stroke-width="2" stroke-linecap="round" stroke-linejoin="round"/><path id="Vector_2" data-node-id="11:3" d="M7.1,5.5l-1.6,1.07v-2.14z" fill="#F15A24" stroke="#F15A24"/><path id="Vector_4" data-node-id="11:5" d="M24.35,2.07c-0.35,-0.44 -0.54,-0.99 -0.54,-1.57h-1.58v6.89c-0.01,0.37 -0.16,0.73 -0.4,0.98c-0.25,0.26 -0.58,0.41 -0.92,0.41c-0.73,0 -1.33,-0.65 -1.33,-1.45c0,-0.95 0.85,-1.67 1.72,-1.37v-1.76c-1.76,-0.26 -3.3,1.23 -3.3,3.13c0,1.85 1.41,3.17 2.9,3.17c1.61,0 2.91,-1.42 2.91,-3.17v-3.49c0.64,0.5 1.4,0.77 2.19,0.77v-1.72c0,0 -0.96,0.05 -1.65,-0.82z" fill="#F15A24"/></g><defs><clipPath id="clip0_1_344">
<rect width="1280" height="2506" fill="white" x="-1183" y="-2485.5"/>
</clipPath></defs></svg>