<svg viewBox="0 0 10 12" fill="none" xmlns="http://www.w3.org/2000/svg" xmlns:xlink="http://www.w3.org/1999/xlink" x="0" y="0"><path id="Vector_5" d="M0.76,9.87c0.38,0.83 1.11,1.43 2.04,1.43h4.4c0.64,0 1.24,-0.31 1.66,-0.81c0.14,-0.18 0.26,-0.37 0.36,-0.58c-0.12,0.28 -0.27,0.53 -0.45,0.75c-0.46,0.55 -1.07,0.84 -1.67,0.84h-4.2c-0.89,0 -1.73,-0.63 -2.14,-1.63zM6.99,6.26c-0.05,0.59 -0.27,1.13 -0.61,1.54c-0.38,0.46 -0.88,0.7 -1.38,0.7c-0.5,0 -1,-0.24 -1.38,-0.7c-0.34,-0.41 -0.56,-0.95 -0.61,-1.54v-0.04c0.04,0.5 0.23,0.99 0.55,1.37c0.36,0.44 0.88,0.71 1.44,0.71c0.56,0 1.08,-0.27 1.44,-0.71c0.32,-0.38 0.51,-0.87 0.55,-1.37zM5,3.5c0.5,0 1,0.24 1.38,0.7c0.35,0.41 0.57,0.97 0.61,1.58c-0.04,-0.51 -0.23,-0.99 -0.55,-1.37c-0.36,-0.44 -0.88,-0.71 -1.44,-0.71c-0.56,0 -1.08,0.27 -1.44,0.71c-0.32,0.38 -0.51,0.86 -0.55,1.37c0.04,-0.61 0.26,-1.17 0.61,-1.58c0.33,-0.41 0.76,-0.64 1.19,-0.69zM7.62,2.6c0.01,0 0.01,0 0.02,0c0.01,0.01 0.03,0.02 0.04,0.04c0.04,0.04 0.07,0.12 0.07,0.21c0,0.09 -0.03,0.17 -0.07,0.21c-0.01,0.02 -0.03,0.03 -0.04,0.03c-0.01,0.01 -0.01,0.01 -0.02,0.01c0,0 0,0 -0.01,-0.01c-0.01,0 -0.03,-0.01 -0.04,-0.03c-0.04,-0.04 -0.07,-0.12 -0.07,-0.21c0,-0.09 0.03,-0.17 0.07,-0.21c0.01,-0.02 0.03,-0.03 0.04,-0.04c0.01,0 0.01,0 0.01,0zM2.9,0.5h4.2c0.88,0 1.72,0.63 2.13,1.62c-0.37,-0.82 -1.1,-1.42 -2.03,-1.42h-4.4c-0.64,0 -1.24,0.31 -1.66,0.81c-0.14,0.18 -0.26,0.37 -0.36,0.58c0.12,-0.28 0.27,-0.53 0.45,-0.75c0.46,-0.55 1.07,-0.84 1.67,-0.84z" fill="white" stroke="currentColor"/></svg>